<svg xmlns="http://www.w3.org/2000/svg" viewBox="0 0 153.81 153.81"><defs><style>.cls-1{fill:#00a19d;}.cls-2{fill:#e05d5d;}.cls-3{fill:#231f20;opacity:0.2;}.cls-4{fill:#fff;}</style></defs><title>Asset 1</title><g id="Layer_2" data-name="Layer 2"><g id="Layer_1-2" data-name="Layer 1"><path class="cls-1" d="M153.81,14.63V87.89a14.63,14.63,0,0,1-14.64,14.64h-5a35.54,35.54,0,0,0-12.47-21.11,67.2,67.2,0,0,0-9.64-6.63,97.62,97.62,0,0,0-9.55-4.85A162.64,162.64,0,0,0,82.4,62.63q-15.29-6-20.89-9.91a16,16,0,0,1-1.77-1.46,12,12,0,0,1-3.83-9.07A14.42,14.42,0,0,1,61.35,30.8q5.46-4.64,14.9-4.63,11.6,0,17.35,4.77T99.35,46.3H133l.2-.61q.51-21.78-15.1-33.74T77,0h62.21A14.63,14.63,0,0,1,153.81,14.63Z"/><path class="cls-2" d="M100.37,112A13.82,13.82,0,0,1,95,123.31q-5.32,4.32-16.22,4.32c-8.83,0-15.38-1.85-19.66-5.5s-6.42-9.84-6.42-18.54H19l-.2.62q-.53,25.67,17.09,37.62,16.88,11.5,40.89,11.95l2.08,0H14.64A14.63,14.63,0,0,1,0,139.16V65.9A14.64,14.64,0,0,1,14.64,51.26h7.57A32.64,32.64,0,0,0,34.81,71.4,93.72,93.72,0,0,0,51.27,81a213.74,213.74,0,0,0,24.87,9.63q13.76,4.83,19,9.09a12.46,12.46,0,0,1,2.6,2.78A16.21,16.21,0,0,1,100.37,112Z"/><path class="cls-3" d="M133,46.31,112.09,74.8a99.88,99.88,0,0,0-9.55-4.86A165.94,165.94,0,0,0,82.4,62.63q-15.29-6-20.89-9.9a16.05,16.05,0,0,1-1.77-1.47,12,12,0,0,1-3.83-9.07,14.38,14.38,0,0,1,5.44-11.38c3.64-3.1,8.6-4.63,14.9-4.63q11.6,0,17.35,4.76c3.83,3.2,5.75,8.31,5.75,15.37Z"/><path class="cls-3" d="M76.73,153.79v0H14.64A14.64,14.64,0,0,1,0,139.17V129.9l19-26.3-.2.61q-.53,25.67,17.09,37.62Q52.72,153.33,76.73,153.79Z"/><path class="cls-4" d="M135.07,111.81q0,19.71-15.4,30.85-10.76,7.78-26.44,10.13a98,98,0,0,1-14.42,1l-2.08,0q-24-.47-40.89-11.95-17.61-12-17.09-37.62l.2-.62H52.73q0,13.05,6.42,18.54c4.28,3.65,10.83,5.5,19.66,5.5q10.89,0,16.22-4.32a13.82,13.82,0,0,0,5.34-11.3,16.21,16.21,0,0,0-2.64-9.48,12.46,12.46,0,0,0-2.6-2.78q-5.23-4.27-19-9.09A213.74,213.74,0,0,1,51.27,81,93.72,93.72,0,0,1,34.81,71.4a32.64,32.64,0,0,1-12.6-20.14,45.53,45.53,0,0,1-.9-9.26q0-18.81,15.71-30.41A57.43,57.43,0,0,1,58.67,1.9h0A83,83,0,0,1,77,0q25.58,0,41.17,12t15.1,33.74l-.2.61H99.35q0-10.57-5.75-15.36T76.25,26.17q-9.45,0-14.9,4.63a14.42,14.42,0,0,0-5.44,11.39,12,12,0,0,0,3.83,9.07,16,16,0,0,0,1.77,1.46q5.59,3.95,20.89,9.91a162.64,162.64,0,0,1,20.14,7.31,97.62,97.62,0,0,1,9.55,4.85,67.2,67.2,0,0,1,9.64,6.63,35.54,35.54,0,0,1,12.47,21.11A47.48,47.48,0,0,1,135.07,111.81Z"/></g></g></svg>